D:\PredSim\limbproperties\Ratio80\Ratio80_quasi_random_2.mot
version=1
nRows=4
nColumns=124
inDegrees=yes
endheader
                time	         pelvis_tilt	         pelvis_list	     pelvis_rotation	           pelvis_tx	           pelvis_ty	           pelvis_tz	       hip_flexion_r	     hip_adduction_r	      hip_rotation_r	        knee_angle_r	       ankle_angle_r	    subtalar_angle_r	         mtp_angle_r	       hip_flexion_l	     hip_adduction_l	      hip_rotation_l	        knee_angle_l	       ankle_angle_l	    subtalar_angle_l	         mtp_angle_l	    lumbar_extension	      lumbar_bending	     lumbar_rotation	          arm_flex_r	           arm_add_r	           arm_rot_r	        elbow_flex_r	          arm_flex_l	           arm_add_l	           arm_rot_l	        elbow_flex_l	glut_med1_r/activation	glut_med2_r/activation	glut_med3_r/activation	glut_min1_r/activation	glut_min2_r/activation	glut_min3_r/activation	semimem_r/activation	semiten_r/activation	bifemlh_r/activation	bifemsh_r/activation	    sar_r/activation	add_long_r/activation	add_brev_r/activation	add_mag1_r/activation	add_mag2_r/activation	add_mag3_r/activation	    tfl_r/activation	   pect_r/activation	   grac_r/activation	glut_max1_r/activation	glut_max2_r/activation	glut_max3_r/activation	iliacus_r/activation	  psoas_r/activation	quad_fem_r/activation	    gem_r/activation	   peri_r/activation	rect_fem_r/activation	vas_med_r/activation	vas_int_r/activation	vas_lat_r/activation	med_gas_r/activation	lat_gas_r/activation	 soleus_r/activation	tib_post_r/activation	flex_dig_r/activation	flex_hal_r/activation	tib_ant_r/activation	per_brev_r/activation	per_long_r/activation	per_tert_r/activation	ext_dig_r/activation	ext_hal_r/activation	glut_med1_l/activation	glut_med2_l/activation	glut_med3_l/activation	glut_min1_l/activation	glut_min2_l/activation	glut_min3_l/activation	semimem_l/activation	semiten_l/activation	bifemlh_l/activation	bifemsh_l/activation	    sar_l/activation	add_long_l/activation	add_brev_l/activation	add_mag1_l/activation	add_mag2_l/activation	add_mag3_l/activation	    tfl_l/activation	   pect_l/activation	   grac_l/activation	glut_max1_l/activation	glut_max2_l/activation	glut_max3_l/activation	iliacus_l/activation	  psoas_l/activation	quad_fem_l/activation	    gem_l/activation	   peri_l/activation	rect_fem_l/activation	vas_med_l/activation	vas_int_l/activation	vas_lat_l/activation	med_gas_l/activation	lat_gas_l/activation	 soleus_l/activation	tib_post_l/activation	flex_dig_l/activation	flex_hal_l/activation	tib_ant_l/activation	per_brev_l/activation	per_long_l/activation	per_tert_l/activation	ext_dig_l/activation	ext_hal_l/activation	 ercspn_r/activation	 ercspn_l/activation	 intobl_r/activation	 intobl_l/activation	 extobl_r/activation	 extobl_l/activation	
          1.15565299	        -11.37929315	          1.71206684	         -0.17249350	          2.29401562	          0.89064014	         -0.00064056	         -1.93058859	         -0.16269065	          4.50202644	        -26.67891103	          0.09445437	         12.90261845	         23.31826376	         40.06884735	          3.63733682	         -2.05020244	        -16.34217466	         14.57596483	         -4.92053810	          0.17559041	          2.92710943	         -2.08246202	          4.29646905	         -1.58506280	        -13.99826211	         18.22032449	         38.44123076	         -2.52206791	        -13.90834694	         11.56871337	         46.16323517	          0.11339699	          0.06050845	          0.05642033	          0.16617225	          0.13735415	          0.10786170	          0.05000007	          0.05000000	          0.05000000	          0.05000000	          0.05000001	          0.68665268	          0.24733321	          0.21938898	          0.08624856	          0.08411622	          0.65986591	          0.05000016	          0.05000002	          0.05642016	          0.05642768	          0.10321958	          0.58307007	          0.93722826	          0.53711832	          0.17454030	          0.13225137	          0.72266071	          0.10321960	          0.10321963	          0.10321956	          0.26730631	          0.33296987	          0.17758074	          0.22211757	          0.27260352	          0.30615937	          0.05000000	          0.05642035	          0.14606214	          0.05000000	          0.10909198	          0.05000000	          0.20491132	          0.16779652	          0.17127301	          0.05641924	          0.05217921	          0.05001274	          0.54114647	          0.22357684	          0.66462810	          0.05000000	          0.10140955	          0.05757097	          0.22498099	          0.40362747	          0.37426510	          0.32647285	          0.05000003	          0.05000412	          0.16368286	          0.26692716	          0.27269863	          0.40265274	          0.06979936	          0.06545429	          0.17627878	          0.06087181	          0.20992365	          0.05000000	          0.05404206	          0.05247211	          0.05000008	          0.06366496	          0.05642028	          0.06366497	          0.07169587	          0.05642430	          0.06366487	          0.50468605	          0.27686147	          0.16739065	          0.15575369	          0.62805613	          0.40440056	          0.07075369	          0.14855867	          0.05000000	          0.05000000	          0.05000000	          0.06097819	
          1.16335734	        -11.36893664	          1.66707391	         -0.31169856	          2.31132958	          0.88965810	         -0.00071823	         -1.91491823	         -0.22324176	          4.33120292	        -28.21592764	         -2.00572057	         13.42244797	         23.61314234	         39.68411371	          3.67022395	         -1.74208302	        -15.72887730	         14.22564741	         -4.84074918	          0.19174874	          3.09673875	         -2.17492226	          4.33397143	         -1.90822963	        -14.05622963	         18.29043001	         38.77344686	         -2.94342455	        -13.96514711	         11.36281743	         46.38779907	          0.10049308	          0.05362296	          0.05000004	          0.14726283	          0.12172407	          0.09558768	          0.05000011	          0.05000000	          0.05000000	          0.05000000	          0.05000102	          0.67788027	          0.32000336	          0.19442408	          0.07643408	          0.09120061	          0.69308163	          0.06366499	          0.05000004	          0.05000005	          0.05000655	          0.09147381	          0.57244681	          0.94951292	          0.58720657	          0.27682365	          0.11720204	          0.73006289	          0.09147382	          0.09147385	          0.09147379	          0.23688844	          0.29507987	          0.15737310	          0.19684191	          0.24158286	          0.27132026	          0.05000000	          0.05000005	          0.12944114	          0.05000000	          0.23968586	          0.05000000	          0.22132845	          0.21332132	          0.21384908	          0.05000001	          0.05000004	          0.05642060	          0.54793760	          0.23080000	          0.66590923	          0.05000001	          0.08986975	          0.05101974	          0.19937950	          0.42905431	          0.41272602	          0.34341511	          0.05000015	          0.05000006	          0.17456618	          0.29869371	          0.30023473	          0.42378874	          0.06185661	          0.05800598	          0.18591457	          0.05394502	          0.21128844	          0.05000000	          0.05907088	          0.05710306	          0.05055691	          0.05642027	          0.05000003	          0.05642028	          0.06353731	          0.05000358	          0.05642024	          0.55378603	          0.31713354	          0.17933806	          0.31784908	          0.66363557	          0.45976121	          0.08130499	          0.13408843	          0.05000000	          0.05000000	          0.05000000	          0.07117523	
          1.17106170	        -11.35470477	          1.62563942	         -0.44196183	          2.32862933	          0.88843407	         -0.00079176	         -1.69738201	         -0.27291729	          4.16307050	        -30.07661757	         -4.05147905	         13.87860045	         23.36396469	         39.32469779	          3.72975300	         -1.40279822	        -15.75904307	         13.57090315	         -4.74683822	          0.20637002	          3.26470496	         -2.27666093	          4.35332425	         -2.21751857	        -14.11172249	         18.35855757	         39.07867399	         -3.33851669	        -14.02815711	         11.18705345	         46.55708792	          0.08905757	          0.05000001	          0.07184479	          0.13050520	          0.10787259	          0.08471038	          0.05000003	          0.05000000	          0.05000000	          0.05000000	          0.05000328	          0.65745836	          0.50342630	          0.28198587	          0.09990654	          0.08106330	          0.72812854	          0.05642037	          0.05000007	          0.05451876	          0.07183996	          0.08106464	          0.53606444	          0.91889116	          0.63054629	          0.24532280	          0.10386515	          0.64698607	          0.08106464	          0.08106467	          0.08106461	          0.20993194	          0.26150154	          0.13946498	          0.17444247	          0.21409217	          0.24044562	          0.13697280	          0.05000000	          0.11471151	          0.05000000	          0.34139159	          0.06393420	          0.19614259	          0.18904670	          0.37650000	          0.05642029	          0.05642029	          0.05000029	          0.48558556	          0.20453633	          0.59013273	          0.05642029	          0.07964311	          0.07183994	          0.22095660	          0.54753984	          0.45839473	          0.36090128	          0.05000000	          0.07160371	          0.19145712	          0.37903133	          0.36833750	          0.48762322	          0.06113407	          0.05140525	          0.16475861	          0.05000000	          0.38568151	          0.05000000	          0.10311975	          0.11882347	          0.10255692	          0.05000000	          0.05000000	          0.05000000	          0.05630715	          0.05000001	          0.05000001	          0.68091412	          0.37341149	          0.18434017	          0.54932590	          0.77777532	          0.59440544	          0.10785529	          0.11882996	          0.05000000	          0.05000000	          0.05000000	          0.06366497	
          1.17876605	        -11.33688588	          1.59514712	         -0.56347640	          2.34586626	          0.88699592	         -0.00086129	         -1.28964872	         -0.31824795	          3.99321159	        -32.23560539	         -5.95429953	         14.26764728	         22.41175465	         38.99930209	          3.81109258	         -1.02816232	        -16.54993258	         12.48731374	         -4.62296556	          0.23729507	          3.42647438	         -2.39286415	          4.35726283	         -2.50208818	        -14.16169942	         18.42601564	         39.34268902	         -3.69325151	        -14.09643434	         11.04936687	         46.65489376	          0.07892334	          0.05642029	          0.06366929	          0.11565448	          0.09559733	          0.07507084	          0.06378948	          0.05000000	          0.05000001	          0.05000000	          0.05000005	          0.63341233	          0.53158652	          0.38795256	          0.08853783	          0.07183879	          0.75738135	          0.05000008	          0.05000005	          0.06366498	          0.06366504	          0.07183997	          0.48741940	          0.87098533	          0.74428500	          0.21740654	          0.09204591	          0.57336290	          0.07183997	          0.07183999	          0.07183994	          0.18604293	          0.23174422	          0.12359469	          0.15459196	          0.18972976	          0.21308434	          0.32175386	          0.05425181	          0.10165809	          0.05000002	          0.48505777	          0.33797341	          0.34625129	          0.30636760	          0.58807456	          0.05000000	          0.05000000	          0.37236723	          0.43032881	          0.18126131	          0.52297913	          0.05000000	          0.07058019	          0.06366498	          0.19581306	          0.48523309	          0.47945136	          0.37862719	          0.05052118	          0.06345569	          0.16967046	          0.38883571	          0.37417163	          0.48859375	          0.05642029	          0.05642029	          0.36154832	          0.05229979	          0.34179326	          0.05642028	          0.15496747	          0.16030261	          0.14872018	          0.05642028	          0.05642029	          0.05642028	          0.05000000	          0.05000000	          0.05000001	          0.60343014	          0.39243245	          0.17923687	          0.59084555	          0.85318365	          0.64449065	          0.13229154	          0.10530782	          0.08935506	          0.05000000	          0.05000000	          0.05642028	
